<svg class="svg-circle" width="579" height="216" viewBox="0 0 579 216" fill="none" xmlns="http://www.w3.org/2000/svg">
<g clip-path="url(#clip0_6_101)">
<path fill-rule="evenodd" clip-rule="evenodd" d="M243.626 2.31966C242.781 3.37171 242.109 3.46695 241.334 2.6421C239.818 1.03062 232.886 4.95844 231.729 8.08365C231.067 9.86466 231.005 9.40594 231.478 6.2652L232.11 2.06451L228.172 2.78942C222.414 3.85048 220.748 3.9343 219.775 3.21193C218.519 2.28022 212.787 2.85784 211.55 4.04058C210.86 4.70038 210.372 4.5583 210.132 3.62442C209.837 2.48237 209.177 2.4468 206.794 3.44209C204.769 4.28712 203.304 4.32324 202.194 3.55642C200.952 2.69722 200.124 2.94422 198.703 4.59818C197.154 6.40144 196.204 6.61534 193.061 5.8725C190.981 5.38029 188.875 5.12992 188.379 5.31552C187.883 5.50002 185.26 5.7385 182.548 5.84437C174.714 6.15099 174.482 6.18579 174.465 7.06518C174.456 7.52508 173.185 7.63565 171.637 7.31304C169.124 6.78742 168.874 6.97471 169.281 9.07312C169.587 10.6494 169.322 11.409 168.477 11.3844C167.786 11.3643 167.233 10.6105 167.251 9.70922C167.271 8.61681 166.386 8.04456 164.597 7.9925C163.046 7.94739 161.901 8.4912 161.885 9.27993C161.869 10.1232 160.472 10.6608 158.231 10.6864C154.102 10.7324 152.777 11.6722 154.672 13.2116C155.551 13.9258 155.608 14.2608 154.85 14.2508C154.234 14.2416 153.717 14.972 153.699 15.8733C153.682 16.7745 153.063 17.4943 152.325 17.4728C151.587 17.4514 150.997 16.6964 151.015 15.7952C151.032 14.8939 151.448 14.1682 151.941 14.1826C152.433 14.1969 152.845 13.717 152.857 13.1161C152.888 11.4688 150.457 11.7348 149.883 13.4407C149.577 14.3477 148.549 14.7113 147.253 14.3698C145.288 13.8525 145.149 14.1019 145.42 17.6567C145.699 21.3144 147.865 23.9329 149.031 22.0223C149.327 21.5402 150.678 21.0909 152.033 21.0254C153.388 20.9599 155.003 20.8647 155.619 20.8138C156.236 20.7629 157.64 21.0869 158.739 21.5331C160.232 22.1394 160.747 21.9041 160.772 20.6051C160.799 19.1905 161.229 19.0774 163.081 19.999C166.504 21.7021 169.71 21.5198 169.746 19.6191C169.765 18.5999 170.622 18.005 172.016 18.0455C173.323 18.0835 174.241 18.7387 174.224 19.6203C174.184 21.6894 181.262 22.0264 181.947 19.9882C182.22 19.1764 183.521 18.5693 184.834 18.6381C189.387 18.8776 190.363 18.5716 190.395 16.8925C190.413 15.965 190.93 15.3002 191.543 15.4164C192.157 15.5315 193.58 15.5947 194.706 15.5554C196.459 15.496 196.623 15.1717 195.848 13.2987C195.109 11.5131 195.191 11.2356 196.294 11.788C197.037 12.1616 197.631 13.1516 197.615 13.9885C197.599 14.8253 198.147 15.5265 198.832 15.5465C199.519 15.5664 200.294 16.3191 200.558 17.2186C201.261 19.6219 212.067 19.3033 214.575 16.8055C216.504 14.8844 218.669 14.3232 217.79 15.9732C217.509 16.4973 218.288 17.1911 219.519 17.5166C220.749 17.8409 221.985 17.6791 222.263 17.157C222.542 16.6339 223.14 16.5005 223.591 16.86C224.043 17.2186 224.422 16.9913 224.434 16.3556C224.447 15.7197 225.287 15.2229 226.299 15.2524C227.313 15.2818 227.884 15.7903 227.568 16.3822C227.216 17.0442 228.48 17.4384 230.854 17.4068C233.429 17.3724 233.914 17.1822 232.31 16.8361C230.597 16.4659 230.067 15.8428 230.462 14.6684C230.766 13.7623 231.254 13.4377 231.546 13.9468C232.366 15.3817 235.883 17.7171 237.287 17.758C237.979 17.7781 240.443 15.7107 242.759 13.1625C245.644 9.99131 246.962 9.094 246.939 10.3164C246.92 11.2974 245.672 12.9421 244.166 13.9696C241.083 16.0736 241.305 17.8748 244.658 17.9723C246.089 18.0139 246.679 17.5874 246.296 16.7893C245.866 15.8947 246.143 15.8622 247.268 16.6744C249.257 18.1094 252.177 17.3166 252.215 15.3317C252.231 14.5015 252.646 13.8326 253.139 13.8469C253.631 13.8613 254.021 14.5284 254.006 15.3291C253.962 17.6144 264.508 17.6599 265.058 15.3774C265.399 13.9608 265.483 13.995 265.539 15.5739C265.616 17.7797 267.427 18.1449 269.032 16.2767C269.865 15.3061 270.125 15.3083 270.106 16.285C270.079 17.7138 285.798 18.1087 287.708 16.728C288.289 16.3066 288.959 16.5862 289.195 17.3484C289.523 18.4061 289.845 18.3652 290.559 17.1738C291.072 16.3154 291.304 15.2215 291.074 14.7415C290.845 14.2626 291.275 14.1811 292.033 14.5607C292.79 14.9412 293.398 15.831 293.385 16.5401C293.357 17.9482 295.061 18.3191 301.856 18.3855C304.318 18.4091 309.552 18.6345 313.489 18.8857C326.025 19.6864 326.799 19.6576 327.177 18.3788C327.432 17.5085 327.947 17.6349 328.85 18.7914C330.494 20.8964 336.036 21.1001 340.023 19.2017C342.655 17.948 343.313 17.9671 344.778 19.3399C346.855 21.2891 348.697 21.5165 347.234 19.6441C345.807 17.8178 345.943 16.5462 347.561 16.5933C348.3 16.6147 348.89 17.3697 348.873 18.2709C348.855 19.1722 349.546 19.9705 350.406 20.0435C351.265 20.1178 353.176 20.3297 354.65 20.5147C356.124 20.6996 357.636 20.3348 358.011 19.7041C358.465 18.9368 358.685 19.0089 358.678 19.9224C358.671 20.6742 359.571 21.3069 360.679 21.3305C362.079 21.3592 362.344 21.0882 361.55 20.4387C360.63 19.6895 360.669 19.2512 361.754 18.205C362.852 17.1451 363.274 17.3191 364.031 19.1468C364.586 20.4888 365.501 21.1538 366.311 20.8013C367.055 20.4776 368.152 20.7258 368.75 21.3532C370.518 23.2092 373.465 23.4654 375.081 21.9047C376.063 20.9593 376.583 20.8782 376.567 21.6757C376.542 22.9767 379.427 23.4607 380.407 22.3197C381.726 20.7852 388.142 21.0745 388.847 22.7007C389.592 24.422 393.416 25.0032 399.161 24.2685C401.03 24.029 403.746 24.2861 405.195 24.8387C406.644 25.3924 407.838 25.4489 407.846 24.9649C407.856 24.4811 408.871 24.1149 410.102 24.1506C411.332 24.1865 412.327 24.834 412.312 25.59C412.281 27.2319 415.626 28.6299 416.061 27.156C416.227 26.5914 417.874 25.7594 419.721 25.307C422.735 24.5695 423.075 24.7105 423.037 26.677C423 28.6159 423.382 28.791 426.366 28.2002C428.221 27.8333 429.417 27.9074 429.027 28.3649C428 29.5702 433.913 32.0113 435.189 30.9095C435.808 30.3755 436.478 30.4792 436.804 31.1586C437.111 31.7983 438.882 32.3657 440.74 32.4198C442.598 32.4738 444.402 32.8804 444.748 33.3234C445.726 34.5759 454.536 34.8573 455.812 33.6779C456.631 32.9202 456.942 33.138 456.916 34.4499C456.889 35.9106 457.733 36.2871 461.134 36.328C463.473 36.3557 466.735 36.7357 468.382 37.1728C470.318 37.686 471.62 37.5085 472.066 36.6712C472.596 35.6777 473.043 35.7245 473.978 36.8711C475.752 39.0443 479.791 41.1828 480.519 40.335C481.658 39.0083 485.414 39.6029 485.876 41.1837C486.234 42.4063 486.61 42.4664 487.648 41.4648C488.964 40.1947 491.205 40.99 490.424 42.4495C490.063 43.1266 492.587 43.3518 495.932 42.9398C496.55 42.8637 497.102 41.942 497.161 40.8923C497.247 39.3656 497.367 39.3144 497.758 40.6363C498.029 41.5459 498.84 42.8472 499.561 43.5285C500.281 44.2096 500.598 45.2801 500.263 45.9066C499.887 46.6115 500.31 46.8577 501.373 46.551C502.317 46.2789 504.538 46.9469 506.308 48.0345C508.078 49.1233 511.521 50.0727 513.963 50.1437C516.404 50.2147 518.393 50.6988 518.384 51.2189C518.374 51.74 518.97 52.1835 519.708 52.2051C520.446 52.2265 521.06 51.7 521.074 51.0348C521.087 50.3695 521.696 50.126 522.427 50.4938C523.159 50.8604 523.767 50.6846 523.778 50.1035C523.812 48.3654 526.251 48.9774 526.802 50.8614C527.555 53.4389 527.496 53.5246 524.993 53.4518C522.806 53.3882 522.767 53.481 524.213 55.332C525.298 56.719 525.848 56.8957 526.128 55.9452C526.396 55.0381 527.447 55.5158 529.412 57.4377C531.24 59.2254 532.879 60.0131 533.867 59.5828C534.793 59.1801 535.735 59.5332 536.177 60.4489C536.586 61.3003 537.64 62.0185 538.519 62.044C539.397 62.0706 540.153 62.708 540.2 63.4592C540.247 64.2115 540.327 65.2412 540.379 65.7466C540.643 68.3175 548.457 70.5822 548.506 68.1012C548.52 67.3672 549.138 67.8781 549.88 69.2365C550.62 70.5958 550.998 72.136 550.719 72.6591C550.041 73.9291 551.821 75.6248 554.86 76.6052C556.332 77.0809 558.284 79.1706 559.686 81.7734C560.979 84.1774 562.535 86.1771 563.139 86.2176C563.745 86.2582 564.489 87.6341 564.794 89.277C565.098 90.9188 566.07 93.2556 566.954 94.4705C568.046 95.9702 568.337 97.3941 567.863 98.9062C567.478 100.13 567.214 103.071 567.275 105.441C567.338 107.811 566.767 110.851 566.006 112.197C565.246 113.543 564.609 115.398 564.591 116.321C564.575 117.243 564.158 117.863 563.668 117.699C563.178 117.534 562.243 118.614 561.592 120.098C560.939 121.582 559.497 123.254 558.387 123.816C557.278 124.377 556.353 125.678 556.332 126.708C556.313 127.738 555.72 128.956 555.015 129.416C554.309 129.877 553.569 131.724 553.369 133.522C553.104 135.902 552.514 136.807 551.199 136.849C548.831 136.927 544.549 139.549 541.718 142.654C540.472 144.021 539.35 145.028 539.222 144.89C538.573 144.187 530.171 148.506 528.351 150.478C527.715 151.168 527.183 152.317 527.17 153.029C527.156 153.773 526.413 154.071 525.434 153.728C524.494 153.399 522.457 154.02 520.909 155.109C519.36 156.198 517.513 157.071 516.804 157.051C516.093 157.03 513.994 158.567 512.134 160.466C510.276 162.365 508.019 163.743 507.119 163.53C505.967 163.257 505.47 163.815 505.439 165.417C505.402 167.335 505.023 167.566 503.025 166.891C501.063 166.23 500.746 166.405 501.185 167.91C501.542 169.125 501.25 169.715 500.308 169.687C499.423 169.662 499.101 169.042 499.444 168.023C499.816 166.918 499.427 166.383 498.229 166.348C497.26 166.32 496.459 166.707 496.45 167.207C496.44 167.708 495.927 168.187 495.309 168.271C485.442 169.622 480.44 171.79 480.011 174.902C479.722 177.015 479.563 177.075 478.418 175.497C477.121 173.713 477.077 173.716 469.256 176.382C467.438 177.003 464.436 177.702 462.585 177.936C460.736 178.171 458.75 178.82 458.172 179.376C457.595 179.933 454.727 180.643 451.799 180.952C448.845 181.264 444.568 182.684 442.194 184.142C438.756 186.253 437.66 186.502 436.629 185.406C435.69 184.409 434.858 184.342 433.535 185.159C432.539 185.773 430.35 186.235 428.67 186.185C426.991 186.137 424.354 186.821 422.809 187.707C421.08 188.697 416.492 189.42 410.871 189.586C405.849 189.735 401.036 190.291 400.175 190.823C399.314 191.353 395.835 191.787 392.443 191.786C389.053 191.786 384.644 192.396 382.648 193.142C380.652 193.887 376.408 194.51 373.219 194.527C369.157 194.549 366.777 195.137 365.278 196.493C363.417 198.173 362.972 198.218 361.883 196.824C360.97 195.656 360.031 195.477 358.431 196.166C357.223 196.687 354.711 197.03 352.85 196.929C350.988 196.828 349.062 196.84 348.567 196.956C348.072 197.072 346.401 197.047 344.852 196.9C343.304 196.753 341.761 197.152 341.424 197.783C341.087 198.415 339.878 198.905 338.735 198.873C337.595 198.839 336.155 199.521 335.536 200.388C334.61 201.688 334.211 201.708 333.267 200.499C331.848 198.681 321.585 198.826 319.654 200.69C318.619 201.688 318.181 201.646 317.628 200.491C317.1 199.391 314.41 198.993 306.972 198.917C296.097 198.805 292.559 199.725 292.46 202.691C292.4 204.486 292.327 204.477 291.463 202.558C290.708 200.882 290.373 200.769 289.71 201.96C289.067 203.117 288.792 202.952 288.431 201.189C288.118 199.664 287.127 198.84 285.346 198.622C283.903 198.445 282.713 198.735 282.703 199.268C282.692 199.8 281.479 200.027 280.006 199.774C278.533 199.521 277.32 199.761 277.31 200.306C277.282 201.722 274.53 202.183 271.845 201.22C270.117 200.601 269.278 200.898 268.456 202.422C267.855 203.536 266.683 204.427 265.851 204.403C264.673 204.37 264.581 204.075 265.435 203.079C267.766 200.367 266.543 199.507 260.296 199.462C256.841 199.437 253.812 198.999 253.566 198.487C252.912 197.124 248.816 199.545 248.326 201.586C247.989 202.995 247.895 202.945 247.842 201.324C247.784 199.528 247.033 199.323 240.835 199.406C237.018 199.456 232.994 199.856 231.895 200.293C230.718 200.762 229.671 200.619 229.348 199.947C229.047 199.318 228.18 199.075 227.423 199.404C226.665 199.734 225.601 199.562 225.058 199.022C222.209 196.184 218.351 197.043 217.07 200.799C216.63 202.089 216.51 202.025 216.483 200.491C216.459 199.123 215.732 198.551 213.987 198.534C212.634 198.519 210.534 198.343 209.321 198.141C206.893 197.739 205.485 201.17 207.44 202.725C208.035 203.197 208.235 204.124 207.884 204.781C206.962 206.509 205.556 206.207 205.593 204.29C205.61 203.389 205.207 202.64 204.697 202.625C204.085 202.607 204.127 201.832 204.823 200.33C205.835 198.145 205.708 198.072 201.31 198.315C197.887 198.506 196.754 198.194 196.776 197.069C196.8 195.861 196.54 195.826 195.437 196.891C194.607 197.691 194.077 197.763 194.09 197.074C194.103 196.407 191.793 195.862 188.519 195.759C185.443 195.662 178.432 195.288 172.941 194.928C167.45 194.569 163.136 194.65 163.357 195.11C163.89 196.22 161.075 194.824 158.491 192.696C156.989 191.46 156.008 191.289 154.921 192.075C154.084 192.679 152.635 192.757 151.647 192.253C149.034 190.918 142.323 190.816 138.319 192.049C135.679 192.862 134.658 192.8 134.178 191.8C133.815 191.043 131.277 190.341 128.288 190.169C123.937 189.918 122.684 190.277 120.976 192.265C118.411 195.25 116.683 195.404 118.243 192.508C119.558 190.069 118.619 188.173 117.018 190.037C115.44 191.875 114.079 191.538 115.429 189.645C116.059 188.761 116.425 188.009 116.242 187.972C116.06 187.938 113.369 187.561 110.264 187.136C105.2 186.444 104.375 186.622 102.268 188.871L99.9196 191.379L100.568 188.392C101.275 185.139 101.333 185.178 95.152 184.679C93.0616 184.508 91.3434 184.818 91.3328 185.368C91.3223 185.918 90.6958 185.577 89.9407 184.609C89.1846 183.643 87.8569 182.831 86.9897 182.805C86.1224 182.781 85.1619 182.438 84.8543 182.045C84.5476 181.651 82.7767 181.16 80.9207 180.954C72.3485 179.999 66.8882 178.812 65.8123 177.669C64.9436 176.745 64.2595 176.79 63.1727 177.839C61.9299 179.039 61.534 178.954 60.5872 177.293C59.7469 175.82 59.3448 175.681 58.9716 176.742C58.5813 177.846 58.3116 177.856 57.7189 176.782C57.3027 176.03 56.0221 175.607 54.8731 175.843C53.7232 176.078 50.5497 175.24 47.8193 173.98C45.09 172.717 42.1309 171.944 41.2454 172.259C40.2581 172.609 39.6404 172.275 39.6493 171.391C39.659 170.331 39.4208 170.377 38.7434 171.566C37.9565 172.946 37.606 172.825 36.3112 170.723C35.4784 169.375 32.5028 167.13 29.6973 165.734C26.8917 164.34 24.6031 162.874 24.6109 162.478C24.6184 162.081 23.2112 161.916 21.4837 162.111C18.5956 162.438 18.347 162.234 18.3979 159.589C18.4429 157.249 17.9412 156.571 15.7132 155.959C13.7793 155.429 12.3157 153.867 10.7379 150.65C9.50832 148.142 8.60083 145.928 8.72114 145.726C8.84234 145.524 8.36875 144.773 7.66884 144.056C6.96982 143.34 6.20006 139.925 5.95763 136.469C5.57151 130.942 5.73779 130.027 7.34155 128.868C8.34413 128.144 9.18556 126.44 9.2117 125.082C9.23783 123.725 9.64317 122.625 10.1121 122.64C10.5811 122.653 11.6677 120.963 12.5253 118.884C13.3829 116.805 14.644 115.12 15.326 115.14C16.008 115.16 16.5784 114.556 16.5929 113.8C16.6075 113.043 17.4368 111.833 18.4357 111.112C19.4346 110.39 20.2697 108.877 20.2914 107.751C20.3139 106.582 21.1512 105.466 22.2435 105.152C23.7816 104.708 24.054 104.05 23.6346 101.785C23.1251 99.0378 24.2992 97.9133 25.3634 100.129C25.6561 100.739 26.2311 101.247 26.6419 101.26C27.7544 101.292 28.6402 98.0287 27.92 96.5529C27.5754 95.8455 27.4247 94.4104 27.5873 93.3626C27.749 92.3158 27.4299 91.4452 26.8777 91.4291C26.3255 91.413 26.106 91.8843 26.3902 92.4762C26.6742 93.0681 25.8921 93.8313 24.6516 94.1734C23.411 94.5155 22.1348 95.7223 21.8158 96.8552C21.4975 97.9893 20.8611 98.9053 20.4019 98.8919C19.9428 98.8786 19.5554 99.4663 19.5413 100.198C19.5272 100.93 18.4227 102.622 17.0878 103.957C15.752 105.291 14.1965 107.475 13.6318 108.809C13.0669 110.143 11.2916 111.935 9.68746 112.79C8.08056 113.646 6.74614 115.187 6.71549 116.222C6.67954 117.437 6.19047 117.862 5.32926 117.431C3.786 116.656 3.62758 117.907 4.76783 121.847C5.44131 124.169 5.26887 124.847 3.77174 125.769C2.77666 126.383 2.20047 127.38 2.49148 127.986C2.78252 128.59 2.49184 129.827 1.84577 130.733C0.972347 131.958 0.913448 132.878 1.61713 134.329C2.19684 135.522 2.2417 136.867 1.73488 137.796C0.606156 139.862 0.550437 145.314 1.65755 145.347C2.14981 145.361 2.55874 146.726 2.56543 148.379C2.57211 150.032 2.79328 150.778 3.05567 150.033C3.67598 148.28 5.01221 148.318 4.85103 150.085C4.64108 152.385 7.90871 159.738 9.15724 159.774C9.80432 159.793 10.3209 160.5 10.3046 161.344C10.286 162.31 10.9036 162.699 11.9616 162.395C13.1161 162.063 14.2462 162.988 15.548 165.335C16.5926 167.219 18.2263 168.782 19.1768 168.81C20.1282 168.838 20.8917 169.598 20.8744 170.498C20.857 171.4 21.4469 172.155 22.1853 172.177C22.9237 172.198 23.5175 172.749 23.5051 173.399C23.4925 174.05 23.9905 174.372 24.6106 174.115C25.2317 173.857 25.6536 173.109 25.549 172.45C25.4443 171.793 25.9531 171.553 26.6786 171.917C27.4042 172.282 27.9862 173.208 27.9714 173.977C27.9452 175.341 32.9898 179.05 34.948 179.106C35.4895 179.122 35.9236 179.553 35.9138 180.062C35.9041 180.571 37.1437 181.066 38.6696 181.164C40.1946 181.261 42.1447 182.155 43.0031 183.149C44.0508 184.362 45.3384 184.744 46.9202 184.307C48.303 183.927 49.2682 184.117 49.2558 184.767C49.244 185.376 50.0449 185.642 51.0354 185.356C53.0679 184.769 53.4224 183.379 51.762 182.504C51.1529 182.184 51.5612 181.909 52.6693 181.894C53.8346 181.877 54.6722 182.512 54.6552 183.397C54.62 185.222 59.5542 187.968 62.4077 187.713C63.5174 187.614 64.4173 187.989 64.4066 188.549C64.374 190.238 67.1872 191.096 68.5258 189.805C69.4957 188.868 69.7713 188.976 69.7462 190.282C69.7216 191.555 71.0776 192.157 75.2957 192.743C78.3662 193.17 82.026 193.498 83.4306 193.477C85.731 193.438 85.9402 193.13 85.5437 190.377C85.234 188.226 85.5156 187.142 86.4935 186.715C88.6031 185.797 88.8754 185.982 88.2324 187.893C87.7783 189.242 88.0613 189.525 89.4561 189.123C91.7686 188.457 91.7633 189.661 89.446 191.599C87.7923 192.983 87.761 193.258 89.0442 195.074C90.0276 196.465 90.8859 196.769 91.9589 196.108C92.8208 195.575 94.0132 195.596 94.7127 196.151C95.3908 196.69 96.238 196.923 96.594 196.668C96.9509 196.413 98.3732 196.773 99.7558 197.467C101.139 198.163 104.279 199.009 106.735 199.35C109.191 199.691 111.95 200.276 112.867 200.65C113.951 201.093 114.328 200.901 113.944 200.102C113.06 198.262 114.868 198.672 116.114 200.595C117.643 202.956 118.76 202.706 118.812 199.993C118.844 198.297 119.152 197.97 119.955 198.774C120.559 199.379 122.352 200.45 123.939 201.154C126.647 202.354 126.828 202.274 126.873 199.886C126.905 198.258 127.572 197.152 128.721 196.82C130.135 196.412 130.347 196.655 129.715 197.962C128.308 200.869 131.501 203.654 136.374 203.769C138.741 203.824 142.381 204.4 144.466 205.045C146.677 205.73 148.468 205.818 148.768 205.255C149.051 204.726 148.854 204.279 148.334 204.265C147.813 204.249 147.394 203.853 147.402 203.384C147.429 202.035 152.535 200.205 153.696 201.129C154.385 201.675 154.023 202.187 152.643 202.619L150.539 203.274L152.535 205.424C155.071 208.154 167.695 208.911 168.547 206.385C169.226 204.368 170.665 204.485 170.625 206.552C170.606 207.56 171.432 208.215 172.771 208.254C174.603 208.308 174.946 207.805 174.936 205.093C174.926 202.737 174.438 201.765 173.126 201.487C171.559 201.157 171.506 200.939 172.708 199.788C173.873 198.672 174.402 199.262 176.14 203.639L178.193 208.81L178.762 205.622C179.075 203.868 179.04 201.342 178.685 200.009C178.184 198.129 178.33 197.728 179.33 198.231C180.041 198.587 180.619 199.441 180.613 200.129C180.606 200.876 180.927 200.781 181.412 199.895C182.553 197.809 184.377 199.595 183.671 202.105C183.35 203.248 183.49 204.194 183.982 204.208C184.473 204.223 185.114 205.225 185.403 206.436C185.692 207.646 186.506 208.653 187.21 208.674C187.916 208.694 188.484 209.203 188.472 209.804C188.444 211.26 191.687 211.289 194.017 209.853C195.451 208.969 196.057 209.049 196.624 210.202C197.198 211.367 197.374 211.277 197.414 209.791C197.474 207.513 199.902 207.353 201.84 209.499C202.602 210.341 204.73 211.356 206.569 211.753C209.177 212.316 209.92 212.114 209.945 210.833C209.976 209.184 212.145 209.539 215.253 211.699C215.957 212.189 217.454 212.191 218.58 211.705C219.809 211.176 220.833 211.249 221.14 211.889C221.89 213.452 227.592 213.36 228.063 211.775C228.355 210.798 228.811 210.752 229.708 211.611C230.392 212.267 233.263 212.994 236.087 213.226C240.631 213.6 241.481 213.326 243.451 210.851L245.679 208.053L245.924 210.587C246.154 212.969 246.521 213.118 251.99 213.054C255.192 213.017 258.217 212.947 258.709 212.899C259.203 212.851 265.099 213.31 271.812 213.919C283.264 214.958 284.048 214.903 284.488 212.999C284.902 211.208 284.965 211.195 285.024 212.886C285.083 214.593 286.068 215.313 287.958 215.029C289.325 214.823 315.241 214.35 317.559 214.489C318.911 214.569 320.027 214.176 320.038 213.614C320.05 212.995 320.874 212.998 322.127 213.622C323.266 214.189 324.739 214.265 325.402 213.791C326.071 213.313 327.267 213.46 328.089 214.119C329.01 214.859 330.9 215.013 333.087 214.527C335.019 214.097 336.967 213.864 337.41 214.01C337.855 214.155 338.517 213.715 338.882 213.031C339.383 212.091 340.012 212.108 341.443 213.097C342.489 213.82 343.714 214.143 344.168 213.82C344.623 213.495 347.522 213.061 350.61 212.859C353.699 212.657 356.496 211.983 356.826 211.363C357.157 210.744 358.196 210.277 359.135 210.327C361.489 210.451 364.128 210.522 365.992 210.514C366.854 210.509 367.573 209.799 367.589 208.934C367.606 208.07 368.224 207.382 368.962 207.403C369.7 207.424 370.295 207.933 370.284 208.534C370.272 209.135 370.842 209.644 371.549 209.664C372.465 209.691 372.847 208.424 372.871 205.278C372.89 202.844 373.161 200.556 373.471 200.194C373.785 199.832 374.015 200.822 373.983 202.396C373.922 205.592 375.532 210.872 376.577 210.904C378.254 210.952 380.115 209.551 380.14 208.221C380.188 205.762 382.196 205.158 383.386 207.246C384.721 209.588 387.746 208.782 387.015 206.279C386.734 205.318 387.039 204.65 387.752 204.67C388.423 204.69 389.189 205.45 389.455 206.359C389.721 207.268 390.859 207.983 391.983 207.946C393.501 207.895 393.626 207.738 392.47 207.333C390.663 206.7 390.396 204.747 392.124 204.797C392.769 204.816 394.063 205.551 395.001 206.43C396.204 207.558 397.042 207.704 397.849 206.925C398.653 206.149 398.984 206.2 398.967 207.098C398.952 207.945 399.925 208.178 401.864 207.794C404.984 207.176 406.043 206.988 415.118 205.442C418.331 204.894 421.772 204.018 422.768 203.492C423.762 202.969 425.583 202.62 426.812 202.72C430.008 202.978 436.084 201.697 437.107 200.549C437.585 200.012 438.74 199.595 439.673 199.622C440.607 199.649 442.457 198.785 443.785 197.699C445.43 196.358 446.766 196.023 447.973 196.652C450.778 198.112 451.966 197.935 451.441 196.139C451.135 195.092 451.485 194.501 452.396 194.527C453.187 194.55 453.825 195.06 453.813 195.661C453.801 196.262 454.396 196.771 455.134 196.793C456.721 196.839 456.738 196.719 455.677 193.054C455.144 191.217 455.163 190.235 455.73 190.252C456.211 190.266 456.589 191.015 456.572 191.916C456.555 192.817 457.311 193.577 458.256 193.604C459.199 193.632 460.096 194.135 460.249 194.721C460.412 195.347 462.248 195.089 464.68 194.099C467.823 192.818 469.099 191.605 469.924 189.119L471.013 185.833L472.331 188.246C473.584 190.544 473.826 190.589 477.334 189.191C479.362 188.384 481.319 187.959 481.682 188.249C482.046 188.537 482.185 187.613 481.989 186.192C481.644 183.656 483.694 180.843 484.258 183.082C484.416 183.709 485.051 185.11 485.669 186.194C486.661 187.935 487.208 188.022 490.323 186.935C492.267 186.258 495.58 184.815 497.689 183.726C499.798 182.638 502.14 181.764 502.893 181.786C503.647 181.808 505.883 180.644 507.86 179.199C509.838 177.752 512.04 176.587 512.754 176.608C513.466 176.628 514.594 176.046 515.259 175.314C515.924 174.583 517.823 173.891 519.478 173.778C521.134 173.665 523.354 172.869 524.414 172.009C525.471 171.148 527.053 170.466 527.929 170.491C528.803 170.517 529.534 169.801 529.551 168.899C529.569 167.98 530.38 167.283 531.4 167.313C532.401 167.342 533.465 166.636 533.765 165.743C534.066 164.85 535.286 164.147 536.475 164.182C537.961 164.225 538.923 163.395 539.542 161.538C540.426 158.891 542.301 157.814 542.26 159.977C542.229 161.594 543.96 161.354 545.53 159.526C546.286 158.647 547.586 157.946 548.418 157.97C549.251 157.996 550.35 156.961 550.861 155.672C551.373 154.383 552.603 152.821 553.597 152.199C554.59 151.578 556.314 149.99 557.428 148.668C558.541 147.349 559.774 146.257 560.167 146.243C560.56 146.229 561.918 144.703 563.186 142.851C564.453 140.999 566.625 138.228 568.012 136.695C571.378 132.972 576.858 120.302 574.315 122.12C572.478 123.434 573.213 118.288 575.626 112.943C577.078 109.727 577.956 106.802 577.575 106.442C577.195 106.081 576.949 102.386 577.027 98.2306C577.124 93.165 576.806 90.5128 576.063 90.1862C575.454 89.9182 574.967 89.0559 574.983 88.2694C574.997 87.4818 574.448 86.5564 573.763 86.2129C573.078 85.8683 572.276 84.0765 571.98 82.2305C571.685 80.3846 571.078 78.583 570.63 78.2268C570.181 77.8716 569.822 76.5025 569.829 75.1857C569.836 73.8687 568.976 71.5166 567.915 69.9589C565.275 66.0795 559.396 60.6379 559.368 62.047C559.356 62.6784 558.742 63.1776 558.004 63.1562C557.266 63.1346 556.67 62.7042 556.679 62.2006C556.689 61.6959 555.7 60.6932 554.483 59.9736C553.265 59.2528 552.277 57.7932 552.284 56.7278C552.3 54.7499 547.286 50.8211 544.648 50.7444C543.861 50.7214 542.661 49.8253 541.981 48.754C541.13 47.4144 540.596 47.2064 540.272 48.0901C539.952 48.9595 539.228 48.6434 538.03 47.1099C536.802 45.5374 535.598 45.0291 534.088 45.4442C532.87 45.7804 531.925 45.5606 531.937 44.9445C531.971 43.1617 525.637 38.5682 521.78 37.5783C519.82 37.0753 517.812 36.2354 517.317 35.7128C515.499 33.7907 506.211 30.2985 499.697 29.088C497.657 28.7095 494.687 27.9455 493.096 27.391C491.138 26.7088 490.198 26.7689 490.182 27.5784C490.17 28.2349 489.273 27.7246 488.189 26.4427C486.953 24.9803 484.557 23.8635 481.755 23.4421C479.299 23.0723 475.287 22.161 472.839 21.4154C470.39 20.6708 466.059 19.8015 463.213 19.4826C460.365 19.1648 457.558 18.4176 456.975 17.8224C456.392 17.2272 453.096 16.6132 449.652 16.4573C443.48 16.1783 442.017 15.9117 439.389 14.5925C437.002 13.394 428.68 12.6906 428.661 13.6858C428.65 14.22 427.907 14.1492 427.01 13.5285C425.888 12.7526 425.048 12.784 424.321 13.6307C423.523 14.5595 423.272 14.4877 423.294 13.3407C423.316 12.2341 423.007 12.3235 422.161 13.6684C420.848 15.7529 417.25 15.446 416.151 13.1569C415.679 12.1759 414.511 11.8927 412.615 12.2988C410.688 12.7106 409.98 12.5315 410.404 11.7372C410.794 11.0053 410.251 11.0474 408.951 11.8501C407.231 12.9095 406.704 12.833 405.891 11.4081C405.011 9.8632 404.801 9.87131 403.857 11.4834C402.881 13.1503 402.802 13.1414 402.788 11.3681C402.78 10.3164 402.672 9.40714 402.551 9.34895C402.429 9.29186 398.33 8.91032 393.444 8.5026C388.558 8.09375 384.076 7.24641 383.486 6.61931C382.75 5.83717 382.206 5.86396 381.758 6.70243C381.332 7.50105 379.977 7.61905 377.865 7.04062C372.349 5.5292 368.819 5.53689 368.79 7.06081C368.774 7.83315 368.36 8.45395 367.868 8.43962C367.375 8.42532 367.084 7.86378 367.22 7.19114C367.356 6.51852 366.462 5.80611 365.235 5.60755C364.008 5.40899 362.105 4.86614 361.005 4.40023C359.492 3.76052 358.998 3.98443 358.973 5.32046C358.954 6.29271 359.409 7.10056 359.983 7.11727C360.556 7.13396 360.719 7.50702 360.341 7.94528C359.964 8.38463 359.164 7.88374 358.566 6.83233C357.086 4.23377 352.919 3.93331 349.227 6.15845C346.826 7.60464 345.967 7.70319 345.188 6.61919C344.44 5.58202 344.468 5.44183 345.301 6.04757C345.979 6.54055 346.419 6.19372 346.438 5.14827C346.456 4.21208 345.956 3.43023 345.329 3.41195C343.937 3.37147 340.113 6.23768 338.538 8.50144C337.537 9.94135 337.393 9.83551 337.435 7.69001C337.472 5.71929 337.118 5.35158 335.679 5.86386C334.393 6.32054 333.885 6.00844 333.909 4.77618C333.933 3.51008 333.16 3.07882 331.029 3.16766C329.426 3.23582 327.458 3.66057 326.651 4.11258C325.845 4.56461 324.947 4.63031 324.657 4.25787C324.365 3.88433 320.435 3.33171 315.923 3.02886C309.719 2.61341 307.2 2.87244 305.591 4.09463C303.804 5.45049 303.39 5.46359 303.014 4.17708C302.542 2.56645 299.259 2.19112 297.381 3.5334C296.773 3.96715 296.461 4.7057 296.685 5.1735C296.911 5.64128 296.525 6.96796 295.832 8.11948C294.753 9.90691 291.762 10.491 289.044 9.44574C288.293 9.1572 293.068 7.00075 293.898 7.25549C294.324 7.38597 294.439 6.68865 294.151 5.70421C293.863 4.72085 293.637 3.46056 293.647 2.90562C293.658 2.31899 290.752 2.07923 286.718 2.33354C278.523 2.84935 278.668 2.85577 275.534 1.84537C273.662 1.24111 273.079 1.45589 273.054 2.75695C273.025 4.26449 272.744 4.27164 270.59 2.81974C267.262 0.576222 260.561 0.520162 257.863 2.71297C256.307 3.9761 255.574 4.11326 255.34 3.18613C254.857 1.26692 250.208 1.45416 248.786 3.44909C247.672 5.01033 247.437 4.96962 246.191 2.99762C245.027 1.15479 244.643 1.0529 243.626 2.31966ZM255.087 5.70584C255.069 6.60708 254.651 7.39393 254.157 7.45499C253.664 7.51604 252.841 7.61455 252.33 7.67508C251.818 7.7356 251.003 8.51091 250.519 9.39858C249.271 11.6872 249.371 8.77494 250.634 6.0507C251.772 3.5939 255.133 3.3342 255.087 5.70584ZM207.61 6.44653C207.605 6.71199 207.192 7.22027 206.694 7.57737C206.194 7.93448 205.796 7.70537 205.808 7.06958C205.82 6.43379 206.233 5.92443 206.725 5.93875C207.218 5.95307 207.616 6.18107 207.61 6.44653ZM181.132 11.6749C180.219 13.3874 178.828 11.9304 179.492 9.95709C179.858 8.87142 180.35 8.67586 180.909 9.39166C181.38 9.99451 181.481 11.0216 181.132 11.6749ZM399.951 16.4775C399.933 17.3787 399.327 18.0989 398.605 18.0778C397.804 18.0546 397.504 17.4054 397.837 16.416C398.138 15.523 398.743 14.8028 399.183 14.8157C399.622 14.8284 399.968 15.5762 399.951 16.4775ZM409.3 15.9296C408.846 16.3679 408.163 17.2082 407.785 17.7984C407.391 18.4111 407.106 18.0508 407.119 16.9592C407.132 15.8961 407.804 15.0663 408.634 15.0905C409.454 15.1143 409.754 15.4915 409.3 15.9296ZM177.063 11.6342C177.052 12.235 176.641 12.7149 176.148 12.7006C175.656 12.6863 175.262 12.183 175.274 11.5821C175.286 10.9813 175.698 10.5014 176.19 10.5157C176.681 10.5301 177.075 11.0334 177.063 11.6342ZM205.469 12.0276C205.166 12.3816 204.393 12.3985 203.753 12.064C203.045 11.6947 203.262 11.442 204.306 11.4199C205.25 11.4004 205.774 11.6735 205.469 12.0276ZM423.166 19.9683C423.157 20.4851 422.55 20.6084 421.818 20.2417C421.087 19.874 420.496 19.1496 420.505 18.6318C420.516 18.1151 421.123 17.9918 421.854 18.3585C422.586 18.7262 423.176 19.4505 423.166 19.9683ZM441.984 19.3396C441.972 19.9404 441.258 20.4038 440.397 20.3701C439.058 20.3169 439.029 20.1587 440.194 19.2876C441.908 18.004 442.009 18.0068 441.984 19.3396ZM160.465 13.3374C160.757 13.9471 160.569 14.4336 160.048 14.4184C159.528 14.4033 159.11 13.8992 159.122 13.2985C159.133 12.6976 159.319 12.2111 159.537 12.2175C159.755 12.2238 160.172 12.7278 160.465 13.3374ZM394.507 20.1447C394.495 20.7456 394.059 21.2248 393.538 21.2096C393.018 21.1944 392.849 20.6977 393.165 20.1057C393.48 19.5137 393.916 19.0345 394.133 19.0409C394.351 19.0472 394.518 19.5439 394.507 20.1447ZM416.791 23.4653C417.58 24.6862 417.607 25.1888 416.88 25.1676C416.311 25.1511 415.629 24.3934 415.364 23.4839C415.098 22.5744 414.319 21.814 413.632 21.7941C412.947 21.7741 412.396 21.2487 412.408 20.6272C412.435 19.2125 415.191 20.9966 416.791 23.4653ZM404.991 21.1098C404.688 21.464 403.915 21.4808 403.276 21.1463C402.568 20.7771 402.784 20.5243 403.828 20.5023C404.772 20.4826 405.296 20.7558 404.991 21.1098ZM142.636 16.8271C141.443 18.2155 141.993 20.4514 143.536 20.4799C144.775 20.5027 144.848 20.3017 143.888 19.5184C143.219 18.9743 142.959 17.9907 143.311 17.3331C144.013 16.0167 143.6 15.7063 142.636 16.8271ZM437.98 28.6276C437.677 28.9816 436.904 28.9985 436.265 28.6639C435.557 28.2948 435.773 28.042 436.817 28.0199C437.761 28.0004 438.285 28.2736 437.98 28.6276ZM440.879 30.2377C440.867 30.8385 440.455 31.3184 439.962 31.3041C439.471 31.2898 439.077 30.7864 439.089 30.1857C439.1 29.5849 439.512 29.105 440.005 29.1193C440.497 29.1336 440.891 29.6369 440.879 30.2377ZM450.714 31.0703C450.696 31.9715 450.279 32.6973 449.787 32.6829C449.294 32.6686 448.907 31.9195 448.923 31.0182C448.94 30.117 449.358 29.3913 449.849 29.4056C450.342 29.4199 450.731 30.169 450.714 31.0703ZM475.731 34.0485C475.712 34.9846 475.301 35.4361 474.815 35.0504C474.33 34.6646 473.942 33.8871 473.953 33.3213C473.964 32.7554 474.376 32.3051 474.868 32.3194C475.36 32.3337 475.749 33.1123 475.731 34.0485ZM508.657 44.7789C508.64 45.6802 508.021 46.3999 507.283 46.3785C506.545 46.357 505.955 45.6021 505.972 44.7008C505.99 43.7996 506.607 43.0797 507.346 43.1013C508.085 43.1227 508.675 43.8777 508.657 44.7789ZM539.495 55.2398C539.233 55.9842 539.041 55.3633 539.07 53.8613C539.1 52.3592 539.315 51.7512 539.548 52.5088C539.783 53.2676 539.759 54.4966 539.495 55.2398ZM117.558 55.8106C117.242 56.4026 117.411 56.8994 117.932 56.9146C118.452 56.9296 118.889 56.4505 118.9 55.8497C118.912 55.2489 118.744 54.7521 118.527 54.7457C118.309 54.7395 117.874 55.2187 117.558 55.8106ZM105.533 59.8329C105.504 61.335 105.695 61.9559 105.957 61.2116C106.221 60.4683 106.244 59.2393 106.01 58.4806C105.777 57.7229 105.562 58.3309 105.533 59.8329ZM86.7371 60.6132C85.3099 62.2747 85.3121 63.9317 86.7418 63.3459C87.3628 63.0918 88.5356 63.6244 89.3491 64.53C90.1627 65.4369 91.2622 65.8667 91.7933 65.4877C93.0872 64.5623 93.0586 62.7492 91.7501 62.7111C91.1737 62.6944 90.0539 61.9306 89.2627 61.0145C88.1529 59.7286 87.5753 59.6375 86.7371 60.6132ZM74.6072 65.0523C74.3058 65.4031 74.2618 66.3822 74.5098 67.23C74.871 68.4657 74.1696 68.6148 70.9696 67.9839C68.4289 67.4838 66.7459 67.6359 66.3372 68.4012C65.9842 69.0631 66.1222 69.617 66.6431 69.632C67.164 69.6472 67.5684 70.8275 67.5408 72.2542C67.5016 74.2937 67.9698 74.8626 69.7285 74.9137C71.3045 74.9596 71.9774 74.3845 72.0046 72.9687C72.0472 70.7566 74.5792 68.7852 76.3239 69.6065C77.0658 69.956 77.2467 69.4902 76.8703 68.2026C76.4855 66.8885 76.6346 66.5365 77.3384 67.0958C77.9065 67.5473 78.3794 67.4485 78.3905 66.8761C78.4014 66.3037 77.779 65.5194 77.0073 65.1318C75.2858 64.2675 75.2805 64.2673 74.6072 65.0523ZM80.1683 67.5564C80.1296 69.5708 81.7707 70.2863 83.4914 69.0062C84.7797 68.0467 84.8047 67.9141 83.6211 68.3181C82.8134 68.594 81.7123 68.2549 81.1729 67.5648C80.4484 66.6376 80.1862 66.6354 80.1683 67.5564ZM60.8573 70.5568C60.5415 71.1489 60.7101 71.6456 61.231 71.6608C61.7519 71.6759 62.1653 72.3852 62.149 73.2362C62.1059 75.4791 64.1636 76.0449 65.3808 74.1249C66.1667 72.8853 66.1419 72.1228 65.2803 71.0211C63.9247 69.2852 61.6619 69.0478 60.8573 70.5568ZM54.7595 73.3187C53.8923 73.5688 53.1666 74.6604 53.1457 75.7442C53.1248 76.8278 52.4154 78.3703 51.5689 79.1709C50.2291 80.4369 50.1064 80.3918 50.6238 78.8209C50.9768 77.7458 50.702 76.7574 49.9428 76.3757C49.2421 76.0241 48.6591 76.2126 48.648 76.7937C48.6367 77.376 48.0234 77.8348 47.2851 77.8133C46.5467 77.7918 45.9333 78.2505 45.9221 78.8328C45.9109 79.4139 45.3439 79.6106 44.6611 79.2672C42.6796 78.2729 42.3915 80.2144 44.174 82.5594C45.6161 84.4573 45.8132 84.4958 45.8442 82.8813C45.8636 81.8752 46.4836 81.069 47.222 81.0906C47.9603 81.112 48.5496 81.9008 48.5315 82.8447C48.4762 85.7134 52.3669 84.3772 53.1371 81.2625C53.5595 79.5556 53.8285 79.2595 53.8607 80.4639C53.92 82.6014 55.2644 83.0536 56.2221 81.2572C56.565 80.6136 57.5945 80.3494 58.5098 80.6701C59.869 81.1458 60.0243 80.8946 59.3619 79.2936C58.9162 78.2172 58.8017 77.0443 59.1076 76.6881C59.7169 75.9779 57.8078 72.5765 56.8999 72.7546C56.5889 72.8155 55.6267 73.0696 54.7595 73.3187ZM60.2837 77.0983C59.1188 77.9695 59.148 78.1278 60.4867 78.1809C61.3484 78.2147 62.062 77.7512 62.0736 77.1504C62.0992 75.8177 61.9982 75.8147 60.2837 77.0983ZM36.6811 84.5778C32.0037 88.0718 31.5026 88.9885 33.8464 89.7638C34.7024 90.0466 34.0989 90.0412 32.5033 89.7509C29.5013 89.2046 28.4763 90.728 30.9943 91.9915C31.9025 92.4474 32.2405 93.4989 31.9186 94.8679C31.6396 96.0545 31.7765 97.0367 32.2231 97.0497C32.6689 97.0627 33.0529 96.0901 33.0761 94.8884C33.1219 92.507 33.7873 92.229 35.7041 93.7888C37.1483 94.9643 40.2744 93.103 40.3141 91.0449C40.3292 90.2606 40.9865 89.978 41.8943 90.3641C43.1476 90.8968 43.2041 90.8022 42.185 89.8751C41.1544 88.9369 41.1374 88.4227 42.0927 87.0831C43.0434 85.751 43.046 85.0592 42.106 83.4163C41.0048 81.4912 40.7369 81.5479 36.6811 84.5778ZM18.0562 107.568C18.3532 108.186 17.6746 108.642 16.522 108.6C14.8594 108.537 14.722 108.324 15.8187 107.503C17.5095 106.238 17.4164 106.236 18.0562 107.568ZM540.19 151.174C540.483 151.783 540.071 152.263 539.274 152.24C538.478 152.217 538.084 151.713 538.4 151.121C538.716 150.529 539.128 150.05 539.316 150.055C539.504 150.061 539.898 150.564 540.19 151.174ZM524.615 162.245C524.305 163.163 523.865 163.675 523.636 163.382C523.406 163.089 523.494 162.331 523.832 161.701C524.747 159.983 525.257 160.337 524.615 162.245ZM521.803 168.72C521.494 169.639 521.053 170.151 520.824 169.858C520.596 169.565 520.684 168.808 521.021 168.177C521.937 166.46 522.445 166.814 521.803 168.72ZM500.837 171.89C500.825 172.49 500.389 172.969 499.868 172.955C499.347 172.939 499.178 172.442 499.495 171.85C499.81 171.258 500.246 170.779 500.463 170.785C500.681 170.792 500.848 171.288 500.837 171.89ZM503.969 171.98C504.262 172.59 503.873 173.07 503.106 173.048C502.339 173.026 501.72 172.517 501.732 171.915C501.744 171.314 502.132 170.834 502.595 170.847C503.059 170.861 503.677 171.371 503.969 171.98ZM444.031 192.098C444.02 192.698 443.607 193.178 443.115 193.164C442.623 193.149 442.23 192.646 442.242 192.046C442.253 191.444 442.664 190.965 443.157 190.98C443.649 190.993 444.043 191.497 444.031 192.098ZM97.7733 191.972C98.1761 192.359 97.8627 192.954 97.0762 193.296C96.0457 193.745 95.6583 193.266 95.6906 191.586C95.7153 190.305 96.0295 189.708 96.3877 190.262C96.746 190.816 97.3697 191.586 97.7733 191.972ZM113.31 194.069C113.006 194.423 112.233 194.439 111.594 194.105C110.886 193.735 111.103 193.483 112.147 193.461C113.091 193.442 113.614 193.715 113.31 194.069ZM332.746 204.71C332.728 205.651 331.907 206.325 330.816 206.292C329.228 206.247 329.104 205.974 330.061 204.632C330.692 203.749 331.56 203.036 331.992 203.048C332.425 203.06 332.763 203.809 332.746 204.71ZM234.733 202.406C235.025 203.015 234.614 203.495 233.816 203.472C233.021 203.449 232.627 202.945 232.943 202.354C233.259 201.762 233.671 201.282 233.859 201.286C234.046 201.292 234.44 201.796 234.733 202.406ZM199.373 201.791C199.368 202.016 198.749 202.797 197.995 203.522C196.874 204.605 196.634 204.522 196.661 203.071C196.681 202.096 197.299 201.317 198.038 201.338C198.777 201.36 199.377 201.563 199.373 201.791ZM258.442 203.576C258.436 203.842 258.024 204.35 257.524 204.708C257.024 205.065 256.626 204.836 256.638 204.2C256.65 203.564 257.063 203.055 257.555 203.069C258.048 203.083 258.447 203.312 258.442 203.576ZM218.634 205.217C219.332 205.237 219.884 206.236 219.861 207.438C219.837 208.639 219.589 209.616 219.307 209.608C218.279 209.578 216.734 206.744 216.582 204.61C216.498 203.406 216.639 203.041 216.896 203.799C217.155 204.558 217.937 205.196 218.634 205.217ZM181.375 206.319C181.349 207.727 181.786 208.514 182.458 208.262C183.078 208.03 183.598 207.184 183.612 206.384C183.628 205.582 183.142 204.708 182.531 204.439C181.87 204.149 181.403 204.911 181.375 206.319ZM238.368 208.182C238.066 209.045 237.859 208.779 237.839 207.505C237.824 206.353 238.048 205.714 238.338 206.085C238.627 206.457 238.641 207.401 238.368 208.182ZM240.829 211.327C241.123 211.936 240.734 212.418 239.967 212.395C239.2 212.373 238.581 211.863 238.592 211.262C238.604 210.661 238.992 210.181 239.455 210.194C239.919 210.207 240.537 210.717 240.829 211.327Z" fill="#FFD657"/>
</g>
<defs>
<clipPath id="clip0_6_101">
<rect width="577.973" height="215.402" fill="white" transform="translate(0.438354 0.598145)"/>
</clipPath>
</defs>
</svg>
